<mxfile host="app.diagrams.net" agent="Mozilla/5.0 (Windows NT 10.0; Win64; x64) AppleWebKit/537.36 (KHTML, like Gecko) Chrome/132.0.0.0 Safari/537.36" version="26.0.8" pages="3">
  <diagram name="ALL" id="ZN1mlb7lfTeKt8m_AknO">
    <mxGraphModel dx="1173" dy="1801" grid="1" gridSize="10" guides="1" tooltips="1" connect="1" arrows="1" fold="1" page="1" pageScale="1" pageWidth="827" pageHeight="1169" math="0" shadow="0">
      <root>
        <mxCell id="0" />
        <mxCell id="1" parent="0" />
        <mxCell id="XIO0Y5FDvLYj2nLNnGY_-1" value="CƠ CHẾ NHẬP TỪ CẦN GÕ" style="rounded=0;whiteSpace=wrap;html=1;" vertex="1" parent="1">
          <mxGeometry x="40" y="40" width="120" height="60" as="geometry" />
        </mxCell>
        <mxCell id="XIO0Y5FDvLYj2nLNnGY_-2" value="NÚT SUBMIT" style="rounded=0;whiteSpace=wrap;html=1;" vertex="1" parent="1">
          <mxGeometry x="40" y="120" width="120" height="60" as="geometry" />
        </mxCell>
        <mxCell id="XIO0Y5FDvLYj2nLNnGY_-3" value="NÚT HIỂN THỊ LỜI GIẢI (ĐÁP ÁN)" style="rounded=0;whiteSpace=wrap;html=1;" vertex="1" parent="1">
          <mxGeometry x="40" y="200" width="120" height="60" as="geometry" />
        </mxCell>
        <mxCell id="XIO0Y5FDvLYj2nLNnGY_-4" value="CƠ CHẾ QUA MÀN (Level Up)" style="rounded=0;whiteSpace=wrap;html=1;" vertex="1" parent="1">
          <mxGeometry x="40" y="280" width="120" height="60" as="geometry" />
        </mxCell>
        <mxCell id="XIO0Y5FDvLYj2nLNnGY_-5" value="CƠ CHẾ BỎ QUA (Skip)" style="rounded=0;whiteSpace=wrap;html=1;" vertex="1" parent="1">
          <mxGeometry x="40" y="360" width="120" height="60" as="geometry" />
        </mxCell>
        <mxCell id="XIO0Y5FDvLYj2nLNnGY_-6" value="CƠ CHẾ LỰA CHỌN NHÓM TỪ VỰNG ĐỂ HỌC" style="rounded=0;whiteSpace=wrap;html=1;" vertex="1" parent="1">
          <mxGeometry x="40" y="440" width="120" height="60" as="geometry" />
        </mxCell>
        <mxCell id="XIO0Y5FDvLYj2nLNnGY_-8" value="CƠ CHẾ PHÁT ÂM" style="rounded=0;whiteSpace=wrap;html=1;" vertex="1" parent="1">
          <mxGeometry x="200" y="440" width="120" height="60" as="geometry" />
        </mxCell>
        <mxCell id="XIO0Y5FDvLYj2nLNnGY_-9" value="CƠ CHẾ NHẬP KHO TỪ VỰNG" style="rounded=0;whiteSpace=wrap;html=1;" vertex="1" parent="1">
          <mxGeometry x="360" y="440" width="120" height="60" as="geometry" />
        </mxCell>
        <mxCell id="XIO0Y5FDvLYj2nLNnGY_-10" value="CƠ CHẾ TIẾN TRÌNH" style="rounded=0;whiteSpace=wrap;html=1;" vertex="1" parent="1">
          <mxGeometry x="520" y="440" width="120" height="60" as="geometry" />
        </mxCell>
        <mxCell id="XIO0Y5FDvLYj2nLNnGY_-11" value="CƠ CHẾ THÀNH TỰU VÀ KHÍCH LỆ" style="rounded=0;whiteSpace=wrap;html=1;" vertex="1" parent="1">
          <mxGeometry x="40" y="520" width="120" height="60" as="geometry" />
        </mxCell>
        <mxCell id="XIO0Y5FDvLYj2nLNnGY_-12" value="CƠ CHẾ THU THẬP DỮ LIỆU" style="rounded=0;whiteSpace=wrap;html=1;" vertex="1" parent="1">
          <mxGeometry x="200" y="520" width="120" height="60" as="geometry" />
        </mxCell>
        <mxCell id="XIO0Y5FDvLYj2nLNnGY_-13" value="CƠ CHẾ BÁO LỖI" style="rounded=0;whiteSpace=wrap;html=1;" vertex="1" parent="1">
          <mxGeometry x="360" y="520" width="120" height="60" as="geometry" />
        </mxCell>
        <mxCell id="XIO0Y5FDvLYj2nLNnGY_-14" value="CƠ CHẾ MUA BÁN VÀ SỬ DỤNG ỨNG DỤNG" style="rounded=0;whiteSpace=wrap;html=1;" vertex="1" parent="1">
          <mxGeometry x="520" y="520" width="120" height="60" as="geometry" />
        </mxCell>
        <mxCell id="XIO0Y5FDvLYj2nLNnGY_-15" value="CƠ CHẾ GÕ CHỮ CÁI TIẾNG PHÁP" style="rounded=0;whiteSpace=wrap;html=1;" vertex="1" parent="1">
          <mxGeometry x="40" y="-40" width="120" height="60" as="geometry" />
        </mxCell>
        <mxCell id="XIO0Y5FDvLYj2nLNnGY_-22" value="" style="rounded=0;whiteSpace=wrap;html=1;" vertex="1" parent="1">
          <mxGeometry x="200" y="-40" width="440" height="460" as="geometry" />
        </mxCell>
      </root>
    </mxGraphModel>
  </diagram>
  <diagram id="pQ56sqq-FFJ59R_ujYmW" name="Giao diện khởi động lần đầu tiên">
    <mxGraphModel dx="1114" dy="600" grid="1" gridSize="10" guides="1" tooltips="1" connect="1" arrows="1" fold="1" page="1" pageScale="1" pageWidth="827" pageHeight="1169" math="0" shadow="0">
      <root>
        <mxCell id="0" />
        <mxCell id="1" parent="0" />
        <mxCell id="-hiP7BQrN0IpD2RlHJSb-1" value="" style="rounded=0;whiteSpace=wrap;html=1;" vertex="1" parent="1">
          <mxGeometry x="80" y="40" width="680" height="440" as="geometry" />
        </mxCell>
        <mxCell id="-hiP7BQrN0IpD2RlHJSb-2" value="Bienvenue à&amp;nbsp;Français Facile !&lt;div&gt;Chào mừng đến với Tiếng Pháp Cực Dễ!&lt;/div&gt;" style="rounded=0;whiteSpace=wrap;html=1;" vertex="1" parent="1">
          <mxGeometry x="120" y="70" width="600" height="60" as="geometry" />
        </mxCell>
        <mxCell id="-hiP7BQrN0IpD2RlHJSb-4" value="Ton nom :&lt;div&gt;Tên của bạn là:&lt;/div&gt;" style="rounded=0;whiteSpace=wrap;html=1;" vertex="1" parent="1">
          <mxGeometry x="310" y="180" width="219" height="80" as="geometry" />
        </mxCell>
        <mxCell id="-hiP7BQrN0IpD2RlHJSb-5" value="[Người dùng nhập tên]" style="rounded=0;whiteSpace=wrap;html=1;" vertex="1" parent="1">
          <mxGeometry x="310" y="260" width="220" height="40" as="geometry" />
        </mxCell>
        <mxCell id="-hiP7BQrN0IpD2RlHJSb-6" value="Connais-tu ?&lt;div&gt;Bạn có biết?&lt;/div&gt;&lt;div&gt;&lt;br&gt;&lt;/div&gt;&lt;div&gt;Người Pháp sẽ viết dấu ?, dấu ! và dấu : cách ra một khoảng chứ không viết liền ngay sau chữ cái cuối cùng của từ&amp;nbsp;&lt;/div&gt;" style="rounded=0;whiteSpace=wrap;html=1;" vertex="1" parent="1">
          <mxGeometry x="107.5" y="403" width="625" height="60" as="geometry" />
        </mxCell>
        <mxCell id="-hiP7BQrN0IpD2RlHJSb-7" value="Note: Hiện tôi đang làm giao diện cho dạng ngôn ngữ Pháp - Việt" style="rounded=0;whiteSpace=wrap;html=1;" vertex="1" parent="1">
          <mxGeometry x="214.5" y="525" width="410" height="60" as="geometry" />
        </mxCell>
      </root>
    </mxGraphModel>
  </diagram>
  <diagram id="xxrT2PKjH6neZHoUIXhL" name="Giao diện gõ chữ">
    <mxGraphModel dx="1114" dy="600" grid="1" gridSize="10" guides="1" tooltips="1" connect="1" arrows="1" fold="1" page="1" pageScale="1" pageWidth="827" pageHeight="1169" math="0" shadow="0">
      <root>
        <mxCell id="0" />
        <mxCell id="1" parent="0" />
      </root>
    </mxGraphModel>
  </diagram>
</mxfile>
